<svg xmlns="http://www.w3.org/2000/svg" width="216" height="200" viewBox="0 0 216 200">
    <defs>
        <linearGradient id="prefix__a" x1="50%" x2="50%" y1="0%" y2="100%">
            <stop offset="0%" stop-color="#E4F6E7"/>
            <stop offset="100%" stop-color="#C1E7C7"/>
        </linearGradient>
        <linearGradient id="prefix__d" x1="50%" x2="50%" y1="0%" y2="100%">
            <stop offset="0%" stop-color="#E7EAEE"/>
            <stop offset="100%" stop-color="#D6DBE1"/>
        </linearGradient>
        <filter id="prefix__b" width="460%" height="460%" x="-180%" y="-180%" filterUnits="objectBoundingBox">
            <feGaussianBlur in="SourceGraphic" stdDeviation="3"/>
        </filter>
        <filter id="prefix__c" width="460%" height="460%" x="-180%" y="-180%" filterUnits="objectBoundingBox">
            <feGaussianBlur in="SourceGraphic" stdDeviation="3"/>
        </filter>
    </defs>
    <g fill="none" fill-rule="evenodd" transform="translate(13 14)">
        <path fill="url(#prefix__a)" d="M167.102 171c11.75-8.565 20.839-18.815 22.674-29.295 2.224-12.705-7.528-28.602-10.395-48C174.965 63.817 187.723 38.529 177 19c-9.245-16.838-38.307-20.329-54-17-33 7-52 17-78.733 33.991C17.534 52.982 3.932 68.131 1.018 90.357-3 121 16.793 150.794 39.75 171h127.352z"/>
        <path fill="#10915D" d="M41.165 146.313c-4.14 4.518-6.862 8.08-8.165 10.687-1.333 2.667-1.381 7.667-.143 15H35c3.076-3.15 5.178-6.437 6.307-9.862 1.107-3.36 1.175-8.599.204-15.717-.016-.11-.116-.186-.226-.171-.046.006-.088.028-.12.063z"/>
        <path fill="#15A46A" d="M22.873 139.29C27.65 144.515 30.691 149.418 32 154c1.333 4.667 1 10.667-1 18h-3.239c-3.84-4-6.094-8.333-6.761-13-.657-4.597-.147-11.135 1.53-19.613.02-.109.126-.18.234-.158.042.008.08.03.11.061z"/>
        <path fill="#10915D" d="M174.326 146.268c-3.58 3.91-6.022 7.821-7.326 11.732-1.333 4-1.667 8.667-1 14h2.143c3.238-3.333 5.524-7 6.857-11 1.307-3.921 1.196-8.804-.333-14.647-.028-.107-.137-.171-.244-.143-.037.01-.07.03-.097.058z"/>
        <path fill="#15A46A" d="M168.93 139.232c-5.507 4.59-8.817 9.179-9.93 13.768-1.132 4.667-1.132 11 0 19h4c2.946-5.171 5.016-9.63 6.21-13.378 1.178-3.7 1.193-10.12.046-19.261-.014-.11-.114-.187-.224-.173-.038.004-.073.02-.103.044z"/>
        <path fill="#33353B" d="M123 75.923H76c3 18-8 29-9 40h64c0-16-10-23-8-40"/>
        <path fill="#15A46A" d="M130.912 174.923h-64l-16.045-7.493c-2.78-1.39-4.31-4.449-3.754-7.507l10.675-40.822c.704-3.87 3.26-7.15 6.84-8.777l18.284-7.4h32l17.57 7.414c3.418 1.627 5.867 4.77 6.609 8.48l11.773 41.105c.619 3.093-.91 6.217-3.731 7.628l-16.221 7.372z"/>
        <path fill="#B8D1F4" d="M110.912 108.923h-24v-11c0-.552.447-1 1-1 0 0 7 2 11 2s11-2 11-2c.551 0 1 .448 1 1v11z"/>
        <path fill="#EDB7A1" d="M90.912 115.923L106.912 115.923 106.912 83.923 90.912 83.923z"/>
        <path fill="#D8A893" d="M106.912 94.923c-8 4-16-2-16-2v-9h16v11z"/>
        <path fill="#F3C7B4" d="M122.912 63.923c0 19-12 30-24 30s-24-11-24-30c0-17.673 10.744-28 24-28 13.254 0 24 10.327 24 28"/>
        <circle cx="85.5" cy="71.5" r="2.5" fill="#F30" filter="url(#prefix__b)"/>
        <circle cx="112.5" cy="71.5" r="2.5" fill="#F30" filter="url(#prefix__c)"/>
        <path fill="#111214" d="M111.662 62.423c0 1.381-.626 2.5-1.876 2.5s-1.874-1.119-1.874-2.5.624-2.5 1.874-2.5 1.876 1.119 1.876 2.5M89.912 62.423c0 1.381-.626 2.5-1.876 2.5s-1.874-1.119-1.874-2.5.624-2.5 1.874-2.5 1.876 1.119 1.876 2.5"/>
        <path fill="#33353B" d="M124.912 59.923c4-30-16-31.123-16-31.123s-7-6.877-19-1.877-19 16-17 33c.521 4.444.613 8.08 2.572 10.933-.108-5.162-1.572 1.067.428-8.933s11-13 17-15 14-8 14-8c.58 5.232 4 7 7 10s8 7 8 13c0 3.415-.648 7.796-1.207 10.942 2.966-3.104 3.552-7.381 4.207-12.942"/>
        <g>
            <path fill="#6B9EA5" fill-rule="nonzero" d="M10.055 33.742C5.651 17.227 14.608 2 32.09 2 49.57 2 58.527 17.227 54.123 33.742c-.143.534.175 1.082.708 1.224.534.143 1.082-.175 1.224-.708C60.77 16.576 51.02 0 32.09 0 13.159 0 3.408 16.576 8.123 34.258c.142.533.69.85 1.224.708.533-.142.85-.69.708-1.224zM56.071 45.098l-.029.187-.02.113c-.078.417-.197.887-.366 1.395-.489 1.466-1.283 2.935-2.453 4.309-3.394 3.984-9.207 6.398-18.114 6.398-.552 0-1 .448-1 1s.448 1 1 1c9.468 0 15.843-2.648 19.636-7.102 1.346-1.579 2.262-3.274 2.828-4.972.345-1.033.496-1.852.533-2.352.041-.55-.372-1.03-.923-1.071-.472-.035-.892.264-1.028.696l-.028.111-.036.288z" transform="translate(66.823 30.923)"/>
            <path fill="#8CC1C8" d="M33.589 61h-3c-1.381 0-2.5-1.119-2.5-2.5s1.119-2.5 2.5-2.5h3c1.38 0 2.5 1.119 2.5 2.5s-1.12 2.5-2.5 2.5" transform="translate(66.823 30.923)"/>
            <path fill="#76AFB7" d="M11.035 37.477c1.113 7.922.401 10.042-2.693 10.477-3.76.528-7.432-3.477-8.2-8.946-.769-5.47 1.656-10.331 5.416-10.86 3.095-.435 4.364 1.407 5.477 9.329M53.054 37.477c-1.114 7.922-.402 10.042 2.693 10.477 3.76.528 7.43-3.477 8.2-8.946.769-5.47-1.657-10.331-5.416-10.86-3.095-.435-4.364 1.407-5.477 9.329" transform="translate(66.823 30.923)"/>
        </g>
        <path fill="#FFF" d="M92.912 79.423c2 6 10 6 12 0-4 1-8 1-12 0"/>
        <path stroke="#FFF" stroke-linecap="round" stroke-linejoin="round" d="M92.912 79.423c2 6 10 6 12 0-4 1-8 1-12 0z"/>
        <path fill="#33353B" d="M83.912 52.984c1.292-3.072 5.173-4.041 7.76-1.94-3.621-.743-4.915-.42-7.76 1.94M113.672 52.984c-1.293-3.072-5.174-4.041-7.76-1.94 3.621-.743 4.914-.42 7.76 1.94"/>
        <path fill="#B8D1F4" d="M106.912 123.923h-16v-21l7.51 6.571c.28.246.699.246.98 0l7.51-6.571v21z"/>
        <path fill="#15A46A" d="M110.912 123.923h-24v-19L98.26 117.2c.375.405 1.008.43 1.413.055.021-.02.042-.04.06-.06l11.178-12.272v19z"/>
        <path fill="#E2ECFA" d="M94.747 104.251l-5.358 10.718c-.189.376-.732.361-.898-.027l-5.459-12.738c-.074-.173-.046-.372.073-.518l3.782-4.622c.28-.343.797-.369 1.11-.055l6.655 6.654c.155.155.193.392.095.588M103.07 104.242l5.357 10.713c.192.382.743.366.91-.026l5.454-12.723c.074-.174.046-.375-.074-.521l-3.781-4.621c-.281-.343-.797-.368-1.11-.055l-6.662 6.662c-.151.15-.188.38-.093.57"/>
        <path stroke="#FFF" d="M97.006 62.923c0 5.247-4.253 9.5-9.5 9.5s-9.5-4.253-9.5-9.5 4.253-9.5 9.5-9.5 9.5 4.253 9.5 9.5zM120.006 62.923c0 5.247-4.253 9.5-9.5 9.5s-9.5-4.253-9.5-9.5 4.253-9.5 9.5-9.5 9.5 4.253 9.5 9.5zM97.006 62.923s2-1 4 0"/>
        <path stroke="#E7EAEE" stroke-linecap="round" stroke-width="2" d="M15 171.923L183 171.923"/>
        <path fill="url(#prefix__d)" d="M133.167 175.923H63.246c-1.696 0-3.087-1.343-3.148-3.038l-1.775-49.7c-.064-1.782 1.364-3.262 3.148-3.262h73.47c1.785 0 3.213 1.48 3.149 3.262l-1.775 49.7c-.061 1.695-1.452 3.038-3.148 3.038"/>
        <path fill="#15A46A" d="M98.506 143.619v-2.696c3.174.156 5.7 2.783 5.7 6s-2.526 5.843-5.7 6v-1.494h-.6v1.494c-3.174-.157-5.7-2.783-5.7-6s2.526-5.843 5.7-6v2.696h.6v-2.696 2.696zm2.1 5.146v-1.542l-1.674 1.19s-.388.313-.424.82l-.002.06v1.535l1.75-1.245c.331-.242.35-.742.35-.812v-1.548 1.542zm-4.8-1.542v1.557c.003.095.031.569.351.803l1.747 1.244h.002v-1.534l-.003-.06c-.035-.507-.422-.82-.422-.82l-1.673-1.188-.002-.002zm4.5-.817v-1.285l-1.435.992s-.328.257-.362.676l-.003.056v1.28l1.5-1.037c.281-.201.3-.613.3-.676v-1.291 1.285zm-4.2-1.285l.001 1.283s-.006.466.3.684l1.497 1.035.002.002v-1.28l-.003-.056c-.033-.418-.362-.676-.362-.676l-1.433-.991-.002-.001zm3.9-.774v-1.028l-1.196.794s-.27.203-.3.534l-.004.05v1.025l.002-.002 1.248-.828c.232-.16.25-.482.25-.54v-1.033 1.028zm-3.6-1.028v1.034c.001.055.018.38.251.539l1.247.828.002.002v-1.024l-.003-.051c-.03-.331-.3-.534-.3-.534l-1.165-.773-.032-.021z"/>
    </g>
</svg>
